# xmcd
#
# Track frame offsets: 
#        150
#        13342
#        27302
#        44540
#        58686
#        72097
#        86743
#        98004
#        110787
#        122928
#        141523
#        155184
#        170799
#        186831
#        200135
#
# Disc length: 2895 seconds
#
# Revision: 2
# Processed by: cddbd v1.5.2PL0 Copyright (c) Steve Scherf et al.
# Submitted via: ExactAudioCopy v0.99pb4
#
DISCID=ed0b4d0f
DTITLE=Various Artist - Superstars of Country: Easy Loving (2 of 2)
DYEAR=2005
DGENRE=Country
TTITLE0=Larry Gatlin and the Gatlin Brothers Band - Houston (Means I'm O
TTITLE0=ne Day Closer to You)
TTITLE1=Mac Davis - Baby Don't Get Hooked on Me
TTITLE2=Ray Price - For the Good Times
TTITLE3=George Jones - The Grand Tour
TTITLE4=Tammy Wynette - D-I-V-O-R-C-E
TTITLE5=Jeannie C. Riley - Harper Valley P.T.A.
TTITLE6=Willie Nelson - On the Road Again
TTITLE7=Mickey Gilley - Room Full of Roses
TTITLE8=Charlie Rich - The Most Beautiful Girl
TTITLE9=Johnny Cash - Sunday Morning Coming Down
TTITLE10=Barbara Fairchild - Teddy Bear Song
TTITLE11=Kris Kristofferson - Why Me
TTITLE12=Marty Robbins - My Woman, My Woman, My Wife
TTITLE13=Billy Swan - I Can Help
TTITLE14=Johnny Cash - A Boy Named Sue
EXTD=
EXTT0=
EXTT1=
EXTT2=
EXTT3=
EXTT4=
EXTT5=
EXTT6=
EXTT7=
EXTT8=
EXTT9=
EXTT10=
EXTT11=
EXTT12=
EXTT13=
EXTT14=
PLAYORDER=
